<?xml version="1.0" encoding="utf-8"?>
<svg viewBox="0 0 500 500" xmlns="http://www.w3.org/2000/svg">
  <g transform="matrix(1.953125, 0, 0, 1.953125, 16.522122, 13.851411)">
    <g transform="matrix(0.512, 0, 0, 0.512, 44.264496, 38.601261)">
      <path fill="#F44336" d="M 142.648 171.987 C 130.174 151.875 121.124 135.2 108.587 103.801 C 87.387 50.765 237.521 2.841 176.648 -89.245 C 203.035 -25.634 81.937 13.69 70.688 66.664 C 60.4 115.388 142.586 171.987 142.648 171.987 Z"/>
      <path fill="#F44336" d="M 145.498 76.639 C 143.098 108.088 173.36 124.85 174.235 147.825 C 174.935 166.524 156.148 182.112 156.148 182.112 C 156.148 182.112 190.247 175.412 200.885 146.887 C 212.697 115.213 177.96 93.526 181.535 68.164 C 184.873 43.94 256.921 -1.122 256.921 -1.122 C 256.921 -1.122 150.911 5.903 145.498 76.639 Z"/>
      <g transform="matrix(12.499721, 0, 0, 12.499721, -152.969513, -139.230804)">
        <path fill="#1565C0" d="M32.084 25.055c1.754-.394 3.233.723 3.233 2.01 0 2.901-4.021 5.643-4.021 5.643s6.225-.742 6.225-5.505C37.521 24.053 34.464 23.266 32.084 25.055zM29.129 27.395c0 0 1.941-1.383 2.458-1.902-4.763 1.011-15.638 1.147-15.638.269 0-.809 3.507-1.638 3.507-1.638s-7.773-.112-7.773 2.181C11.683 28.695 21.858 28.866 29.129 27.395z"/>
        <path fill="#1565C0" d="M27.935,29.571c-4.509,1.499-12.814,1.02-10.354-0.993c-1.198,0-2.974,0.963-2.974,1.889c0,1.857,8.982,3.291,15.63,0.572L27.935,29.571z"/>
        <path fill="#1565C0" d="M18.686,32.739c-1.636,0-2.695,1.054-2.695,1.822c0,2.391,9.76,2.632,13.627,0.205l-2.458-1.632C24.271,34.404,17.014,34.579,18.686,32.739z"/>
        <path fill="#1565C0" d="M36.281,36.632c0-0.936-1.055-1.377-1.433-1.588c2.228,5.373-22.317,4.956-22.317,1.784c0-0.721,1.807-1.427,3.477-1.093l-1.42-0.839C11.26,34.374,9,35.837,9,37.017C9,42.52,36.281,42.255,36.281,36.632z"/>
        <path fill="#1565C0" d="M39,38.604c-4.146,4.095-14.659,5.587-25.231,3.057C24.341,46.164,38.95,43.628,39,38.604z"/>
      </g>
    </g>
  </g>
</svg>