<?xml version="1.0" encoding="utf-8"?>
<svg viewBox="0 0 500 500" xmlns="http://www.w3.org/2000/svg">
  <g transform="matrix(1.953125, 0, 0, 1.953125, 16.522122, 13.851411)">
    <g transform="matrix(0.512, 0, 0, 0.512, 44.264496, 38.601261)">
      <path d="M 263.151 251.187 L 263.26 361.782 L 165.12 410.755 L 165.12 300.209 L 263.151 251.187 Z M 380.933 192.079 L 380.933 303.06 L 297.23 344.833 L 297.169 234.36 L 380.933 192.079 Z M 263.006 103.157 L 263.115 212.591 L 165.12 261.287 L 165.12 151.816 L 263.006 103.157 Z M 380.933 44.531 L 380.933 153.277 L 297.145 195.872 L 297.072 86.22 L 380.933 44.531 Z M 150.201 31.666 L 237.795 75.879 L 146.915 121.518 L 60.977 78.356 L 150.201 31.666 Z M 28.36 -29.835 L 111.907 12.338 L 22.477 59.015 L -63.329 15.925 L 28.36 -29.835 Z M 267.186 -29.194 L 357.172 15.925 L 276.693 56.346 L 188.918 12.072 L 267.186 -29.194 Z M 147.447 -89.245 L 228.457 -48.631 L 150.781 -7.16 L 67.307 -49.259 L 147.447 -89.245 Z" fill="#4DABCF"/>
      <path d="M 130.474 151.816 L 64.371 118.583 L 64.371 262.229 C 64.371 262.229 -16.469 90.219 -23.959 74.768 C -24.926 72.775 -28.9 70.588 -29.915 70.057 C -44.411 62.446 -86.885 40.931 -86.885 40.931 L -86.885 294.712 L -28.127 326.121 L -28.127 193.468 C -28.127 193.468 51.856 347.165 52.666 348.844 C 53.475 350.523 61.508 366.723 70.085 372.412 C 81.513 379.975 130.486 409.426 130.486 409.426 L 130.474 151.816 Z" fill="#4D77CF"/>
    </g>
  </g>
</svg>