<?xml version="1.0" encoding="utf-8"?>
<svg viewBox="0 0 500 500" xmlns="http://www.w3.org/2000/svg">
  <g transform="matrix(1.953125, 0, 0, 1.953125, 16.522122, 13.851411)">
    <g transform="matrix(0.512, 0, 0, 0.512, 44.264496, 38.601261)">
      <title>Azure</title>
      <path fill="#0277BD" d="M 153.392 -89.239 C 132.932 -89.174 118.748 -87.371 101.604 -84.411 C 50.974 -75.595 41.75 -57.082 41.75 -22.965 L 41.75 29.179 L 160.168 29.179 L 160.168 55.494 L 37.25 55.494 L -19.985 55.494 C -54.669 55.494 -85.023 71.836 -94.641 111.006 C -105.509 155.965 -105.996 184.123 -94.641 231.069 C -86.023 266.081 -67.037 292.33 -32.34 292.33 L 15.448 292.33 L 15.448 225.174 C 15.448 186.149 50.79 147.597 91.289 147.597 L 186.497 147.597 C 219.693 147.597 252.285 123.098 252.285 90.006 L 252.285 -22.965 C 252.285 -55.056 229.141 -79.055 196.786 -84.437 C 197.589 -84.516 173.681 -89.318 153.392 -89.239 Z M 87.815 -36.609 C 98.617 -36.609 107.551 -27.701 107.551 -16.846 C 107.551 -5.886 98.617 2.864 87.815 2.864 C 76.802 2.864 68.079 -5.873 68.079 -16.846 C 68.079 -27.662 76.802 -36.609 87.815 -36.609 Z"/>
      <path fill="#FFC107" d="M 140.643 410.749 C 161.103 410.683 175.287 408.88 192.431 405.92 C 243.061 397.104 252.285 378.592 252.285 344.474 L 252.285 292.33 L 133.866 292.33 L 133.866 266.015 L 256.798 266.015 L 314.033 266.015 C 348.717 266.015 379.071 249.674 388.689 210.503 C 399.558 165.544 400.044 137.387 388.689 90.441 C 380.058 55.428 361.072 29.179 326.375 29.179 L 278.587 29.179 L 278.587 96.335 C 278.587 135.361 243.245 173.912 202.746 173.912 L 107.538 173.912 C 74.342 173.912 41.75 198.412 41.75 231.503 L 41.75 344.474 C 41.75 376.565 64.894 400.565 97.249 405.946 C 96.446 406.025 120.354 410.828 140.643 410.749 Z M 206.233 358.118 C 195.431 358.118 186.497 349.211 186.497 338.356 C 186.497 327.395 195.431 318.646 206.233 318.646 C 217.246 318.646 225.97 327.382 225.97 338.356 C 225.97 349.171 217.233 358.118 206.233 358.118 Z"/>
    </g>
  </g>
</svg>