<?xml version="1.0" encoding="utf-8"?>
<svg viewBox="0 0 500 500" xmlns="http://www.w3.org/2000/svg">
  <defs>
    <linearGradient x1="0%" y1="50%" x2="100%" y2="50%" id="linearGradient-1">
      <stop stop-color="#FF6F00" offset="0"/>
      <stop stop-color="#FFA800" offset="1"/>
    </linearGradient>
  </defs>
  <g transform="matrix(1.953125, 0, 0, 1.953125, 16.522122, 13.851411)">
    <g transform="matrix(0.512, 0, 0, 0.512, 44.264496, 38.601261)">
      <g transform="matrix(1.745188, 0, 0, 1.745188, -76.360283, -89.244545)">
        <path d="M133.446809,0 L256,69.7191489 L256,133.446809 L182.468085,90.4170213 L182.468085,122.553191 L218.961702,143.795745 L219.506383,198.808511 L182.468085,177.565957 L182.468085,258.178723 L133.446809,286.502128 L133.446809,0 Z M122.553191,0 L122.553191,286.502128 L73.5319149,258.178723 L73.5319149,90.4170213 L0,133.446809 L0,69.7191489 L122.553191,0 Z" transform="matrix(1, 0, 0, 1, 0, 0)" fill="url(#linearGradient-1)"/>
      </g>
    </g>
  </g>
</svg>