<?xml version="1.0" encoding="utf-8"?>
<svg viewBox="0 0 500 500" xmlns="http://www.w3.org/2000/svg">
  <g transform="matrix(1.953125, 0, 0, 1.953125, 16.522122, 13.851411)">
    <g transform="matrix(0.512, 0, 0, 0.512, 44.264496, 38.601261)">
      <g transform="matrix(1.953125, 0, 0, 1.953125, -86.44989, -75.3927)">
        <path d="M 215.494 45.07 L 134.858 -2.805 C 125.274 -8.521 113.328 -8.521 103.744 -2.805 L 23.091 45.07 C 13.39 50.922 7.483 61.448 7.541 72.778 L 7.541 168.511 C 7.489 179.835 13.395 190.353 23.091 196.202 L 103.727 244.061 C 113.312 249.774 125.257 249.774 134.842 244.061 L 215.478 196.202 C 225.186 190.354 231.099 179.828 231.044 168.495 L 231.044 72.778 C 231.103 61.448 225.196 50.922 215.494 45.07 Z" fill="#FFFFFF"/>
        <path d="M 215.953 45.185 L 135.139 -2.795 C 125.533 -8.524 113.561 -8.524 103.955 -2.795 L 23.125 45.185 C 13.403 51.05 7.483 61.599 7.541 72.953 L 7.541 168.898 C 7.489 180.247 13.408 190.788 23.125 196.65 L 103.939 244.614 C 113.545 250.339 125.516 250.339 135.122 244.614 L 215.936 196.65 C 225.665 190.789 231.592 180.24 231.536 168.882 L 231.536 72.953 C 231.595 61.599 225.675 51.05 215.953 45.185 Z M 106.771 239.711 L 25.957 191.747 C 17.971 186.908 13.107 178.236 13.141 168.898 L 13.141 72.953 C 13.104 63.615 17.969 54.941 25.957 50.104 L 106.771 2.124 C 114.636 -2.568 124.442 -2.568 132.307 2.124 L 213.056 50.104 C 219.713 54.136 224.254 60.897 225.468 68.584 C 222.781 62.872 216.745 61.302 209.706 65.348 L 133.31 112.665 C 123.779 118.215 116.756 124.478 116.739 135.967 L 116.739 230.18 C 116.739 237.057 119.507 241.507 123.779 242.818 C 122.38 243.074 120.961 243.21 119.539 243.223 C 115.045 243.219 110.635 242.006 106.771 239.711 Z" fill="#2F3A3E"/>
        <path d="M 194.548 177.968 L 174.462 189.981 C 173.924 190.197 173.563 190.71 173.542 191.289 L 173.542 196.569 C 173.542 197.215 173.977 197.473 174.51 197.166 L 194.904 184.766 C 195.403 184.391 195.642 183.763 195.517 183.151 L 195.517 178.517 C 195.501 177.919 195.033 177.661 194.548 177.968 Z" fill="#3AB14A"/>
        <path d="M 151.804 133.74 C 152.45 133.417 152.983 133.74 152.999 134.66 L 153.063 141.668 C 155.479 140.571 158.174 140.244 160.781 140.731 C 161.282 140.861 161.492 141.539 161.298 142.346 L 159.764 148.498 C 159.648 148.962 159.408 149.386 159.07 149.725 C 158.951 149.842 158.815 149.94 158.666 150.016 C 158.484 150.114 158.273 150.149 158.069 150.113 C 155.526 149.55 152.864 149.977 150.625 151.307 C 147.352 152.782 145.212 156.001 145.119 159.591 C 145.119 162.82 146.734 163.708 152.369 163.805 C 159.813 163.934 163.042 167.18 163.123 174.688 C 162.946 182.525 159.332 189.888 153.241 194.823 L 153.37 201.701 C 153.359 202.555 152.915 203.346 152.191 203.8 L 148.123 206.141 C 147.477 206.464 146.944 206.141 146.928 205.237 L 146.928 198.472 C 143.44 199.925 139.904 200.264 137.643 199.36 C 137.224 199.198 137.03 198.569 137.207 197.842 L 138.677 191.626 C 138.788 191.134 139.041 190.685 139.403 190.334 C 139.518 190.224 139.649 190.131 139.791 190.059 C 140.001 189.965 140.242 189.965 140.453 190.059 C 143.331 190.84 146.401 190.451 148.994 188.978 C 152.736 187.173 155.168 183.441 155.308 179.29 C 155.308 175.802 153.386 174.349 148.849 174.316 C 142.988 174.316 137.546 173.186 137.433 164.628 C 137.568 157.152 141.039 150.128 146.895 145.479 L 146.605 138.439 C 146.602 137.572 147.048 136.766 147.783 136.307 L 151.804 133.74 Z" fill="#FFFFFF"/>
      </g>
    </g>
  </g>
</svg>