<?xml version="1.0" encoding="utf-8"?>
<svg viewBox="0 0 500 500" xmlns="http://www.w3.org/2000/svg">
  <g transform="matrix(1.953125, 0, 0, 1.953125, 16.522122, 13.851411)">
    <g transform="matrix(0.512, 0, 0, 0.512, 44.264496, 38.601261)">
      <title>Azure</title>
      <title id="title6">Artboard 61</title>
      <path d="M 357.578 294.959 C 330.372 294.28 309.288 297.002 291.604 304.482 C 286.503 306.522 278.341 306.524 277.66 312.984 C 280.382 315.706 280.722 320.126 283.103 323.866 C 287.186 330.665 294.324 339.85 300.786 344.611 C 307.927 350.052 315.069 355.492 322.549 360.254 C 335.813 368.416 350.776 373.176 363.698 381.338 C 371.182 386.095 378.66 392.22 386.142 397.321 C 389.884 400.039 392.262 404.462 397.024 406.162 L 397.024 405.142 C 394.643 402.081 393.963 397.661 391.584 394.26 C 388.185 390.859 384.783 387.798 381.382 384.397 C 371.519 371.136 359.278 359.573 346.015 350.052 C 335.134 342.57 311.328 332.368 306.907 319.785 C 306.907 319.785 306.566 319.446 306.227 319.107 C 313.708 318.426 322.549 315.706 329.692 313.664 C 341.255 310.603 351.796 311.283 363.698 308.224 C 369.138 306.863 374.581 305.163 380.021 303.462 L 380.021 300.403 C 373.902 294.28 369.48 286.12 363.018 280.338 C 345.675 265.373 326.63 250.752 306.907 238.511 C 296.364 231.71 282.761 227.287 271.54 221.508 C 267.461 219.464 260.657 218.446 258.278 215.046 C 252.156 207.564 248.755 197.703 244.334 188.86 C 234.476 170.155 224.95 149.414 216.449 129.69 C 210.33 116.427 206.588 103.163 199.106 90.922 C 164.08 33.111 125.993 -1.915 67.501 -36.263 C 54.918 -43.403 39.957 -46.465 23.973 -50.204 C 15.474 -50.546 6.97 -51.224 -1.531 -51.566 C -6.972 -53.946 -12.414 -60.406 -17.176 -63.468 C -36.555 -75.711 -86.547 -102.234 -100.831 -67.208 C -110.013 -45.103 -87.228 -23.341 -79.407 -12.117 C -73.623 -4.296 -66.144 4.545 -62.062 13.388 C -59.682 19.165 -59.003 25.29 -56.622 31.411 C -51.18 46.37 -46.081 63.036 -38.939 76.98 C -35.197 84.121 -31.118 91.603 -26.356 98.063 C -23.636 101.803 -18.876 103.505 -17.854 109.626 C -22.614 116.427 -22.955 126.629 -25.677 135.131 C -37.919 173.557 -33.157 221.166 -15.815 249.391 C -10.374 257.891 2.55 276.599 19.892 269.456 C 35.195 263.335 31.794 243.951 36.215 226.948 C 37.237 222.864 36.556 220.147 38.596 217.426 C 38.597 217.766 38.596 218.107 38.596 218.107 C 43.357 227.628 48.117 236.811 52.537 246.332 C 63.081 262.994 81.443 280.338 96.746 291.901 C 104.91 298.02 111.37 308.563 121.572 312.305 L 121.572 311.283 L 120.892 311.283 C 118.85 308.222 115.791 306.863 113.071 304.482 C 106.95 298.361 100.146 290.879 95.387 284.078 C 81.106 265.033 68.521 243.951 57.299 222.186 C 51.859 211.645 47.097 200.082 42.677 189.541 C 40.635 185.457 40.635 179.339 37.235 177.299 C 32.134 184.779 24.654 191.241 20.912 200.423 C 14.454 215.046 13.771 233.069 11.391 251.772 C 10.032 252.113 10.71 251.772 10.029 252.453 C -0.851 249.73 -4.593 238.511 -8.674 228.987 C -18.876 204.844 -20.576 166.075 -11.733 138.192 C -9.353 131.049 0.849 108.606 -3.232 101.805 C -5.271 95.343 -12.075 91.603 -15.815 86.502 C -20.235 80.04 -24.997 71.879 -28.056 64.737 C -36.219 45.694 -40.3 24.61 -49.14 5.565 C -53.222 -3.278 -60.362 -12.458 -66.144 -20.618 C -72.604 -29.801 -79.746 -36.263 -84.847 -47.145 C -86.545 -50.885 -88.928 -57.006 -86.208 -61.087 C -85.528 -63.807 -84.169 -64.827 -81.447 -65.507 C -77.026 -69.249 -64.443 -64.488 -60.023 -62.448 C -47.44 -57.349 -36.899 -52.585 -26.356 -45.445 C -21.596 -42.044 -16.495 -35.582 -10.375 -33.882 L -3.232 -33.882 C 7.651 -31.503 19.892 -33.201 30.094 -30.142 C 48.119 -24.363 64.439 -15.859 79.064 -6.677 C 123.614 21.548 160.338 61.677 185.165 109.626 C 189.246 117.445 190.944 124.589 194.686 132.75 C 201.829 149.414 210.669 166.417 217.81 182.74 C 224.95 198.721 231.752 215.046 241.954 228.309 C 247.057 235.447 267.458 239.189 276.64 242.931 C 283.442 245.991 293.985 248.713 300.106 252.453 C 311.667 259.591 323.23 267.756 334.112 275.577 C 339.554 279.656 356.556 288.16 357.577 294.959 L 357.578 294.959 L 357.578 294.959 Z" fill="#00546B"/>
      <path d="M 10.708 -0.558 C 4.927 -0.558 0.848 0.125 -3.233 1.144 C -3.233 1.143 -3.233 1.486 -3.233 1.825 L -2.553 1.825 C 0.169 7.265 4.927 11.007 8.327 15.767 C 11.05 21.207 13.428 26.649 16.151 32.091 C 16.49 31.75 16.829 31.411 16.829 31.411 C 21.593 28.008 23.972 22.568 23.972 14.408 C 21.93 12.027 21.591 9.646 19.891 7.265 C 17.851 3.862 13.428 2.164 10.708 -0.558 L 10.708 -0.558 L 10.708 -0.558 Z" fill="#00546B"/>
    </g>
  </g>
</svg>